<?xml version="1.0" encoding="UTF-8"?>
<svg id="Camada_1" data-name="Camada 1" xmlns="http://www.w3.org/2000/svg" xmlns:xlink="http://www.w3.org/1999/xlink" viewBox="0 0 547.92 147.7">
  <defs>
    <style>
      .cls-1 {
        fill: url(#Nova_amostra_de_gradiente_3);
      }
    </style>
    <linearGradient id="Nova_amostra_de_gradiente_3" data-name="Nova amostra de gradiente 3" x1="71.34" y1="79.29" x2="476.57" y2="79.29" gradientUnits="userSpaceOnUse">
      <stop offset="0" stop-color="#a11d2a"/>
      <stop offset=".32" stop-color="#96192f"/>
      <stop offset=".72" stop-color="#cb421a"/>
      <stop offset="1" stop-color="#f3931f"/>
    </linearGradient>
  </defs>
  <g>
    <path d="M81.46,42.18v73.72h-10.12V42.18h10.12Z"/>
    <path d="M146.34,99.1c3.05-2.85,5.41-6.39,6.98-10.22l-17.6.1,18.18,26.93h-12.39l-1.08-1.57c-3.93,1.38-8.16,2.16-12.48,2.16-20.74,0-37.45-16.81-37.45-37.45s16.71-37.35,37.45-37.35c9.04,0,17.79,3.34,24.77,9.34l-6.88,7.67c-4.91-4.42-11.21-6.78-17.89-6.78-15.04,0-27.23,12.19-27.23,27.13s12.19,27.23,27.23,27.23c2.26,0,4.42-.39,6.59-.88l-17.99-26.64,48.75-.1c-.79,11.89-3.54,20.44-12.88,28.7l-6.09-8.26Z"/>
    <path d="M237.25,42.18v73.82h-11.5c-20.94-4.91-33.81-22.12-41.38-38.53v38.53h-10.12V42.18h10.12c.98,6.29,9.04,54.55,42.76,63.69v-63.69h10.12Z"/>
    <path d="M256.9,42.09l22.31,32.14,22.41-32.14h12.38l-29.69,42.76v31.06h-10.32v-31.06l-29.69-42.76h12.58Z"/>
    <path d="M386.45,42.09v41.87c0,18.18-14.75,32.93-32.93,32.93s-32.93-14.74-32.93-32.93v-41.87h10.32v41.87c0,12.48,10.22,22.8,22.61,22.8s22.8-10.32,22.8-22.8v-41.87h10.13Z"/>
    <path d="M407.28,42.18l29.29,65.17c8.85-4.03,25.36-17.69,29.09-65.17h10.91v73.82h-10.32v-29.29c-7.47,17.59-17.3,25.75-24.77,29.29h-12.19l-22.02-48.65v48.65h-10.22V42.18h10.22Z"/>
  </g>
  <g>
    <path class="cls-1" d="M81.46,42.18v73.72h-10.12V42.18h10.12Z"/>
    <path class="cls-1" d="M146.34,99.1c3.05-2.85,5.41-6.39,6.98-10.22l-17.6.1,18.18,26.93h-12.39l-1.08-1.57c-3.93,1.38-8.16,2.16-12.48,2.16-20.74,0-37.45-16.81-37.45-37.45s16.71-37.35,37.45-37.35c9.04,0,17.79,3.34,24.77,9.34l-6.88,7.67c-4.91-4.42-11.21-6.78-17.89-6.78-15.04,0-27.23,12.19-27.23,27.13s12.19,27.23,27.23,27.23c2.26,0,4.42-.39,6.59-.88l-17.99-26.64,48.75-.1c-.79,11.89-3.54,20.44-12.88,28.7l-6.09-8.26Z"/>
    <path class="cls-1" d="M237.25,42.18v73.82h-11.5c-20.94-4.91-33.81-22.12-41.38-38.53v38.53h-10.12V42.18h10.12c.98,6.29,9.04,54.55,42.76,63.69v-63.69h10.12Z"/>
    <path class="cls-1" d="M256.9,42.09l22.31,32.14,22.41-32.14h12.38l-29.69,42.76v31.06h-10.32v-31.06l-29.69-42.76h12.58Z"/>
    <path class="cls-1" d="M386.45,42.09v41.87c0,18.18-14.75,32.93-32.93,32.93s-32.93-14.74-32.93-32.93v-41.87h10.32v41.87c0,12.48,10.22,22.8,22.61,22.8s22.8-10.32,22.8-22.8v-41.87h10.13Z"/>
    <path class="cls-1" d="M407.28,42.18l29.29,65.17c8.85-4.03,25.36-17.69,29.09-65.17h10.91v73.82h-10.32v-29.29c-7.47,17.59-17.3,25.75-24.77,29.29h-12.19l-22.02-48.65v48.65h-10.22V42.18h10.22Z"/>
  </g>
</svg>